<?xml version="1.0" encoding="UTF-8" standalone="no"?>
<!DOCTYPE svg PUBLIC "-//W3C//DTD SVG 1.1//EN" "http://www.w3.org/Graphics/SVG/1.1/DTD/svg11.dtd">
<svg xmlns="http://www.w3.org/2000/svg" version="1.1" viewBox="0.00 0.00 1024.00 1024.00">
<g stroke-width="2.00" fill="none" stroke-linecap="butt">
<path stroke="#808080" vector-effect="non-scaling-stroke" d="
  M 256.71 788.18
  L 767.33 788.18
  A 0.61 0.60 0.0 0 0 767.94 787.58
  L 767.94 355.72
  A 0.60 0.59 0.0 0 0 767.34 355.13
  L 667.88 355.13
  A 1.26 1.26 0.0 0 1 666.65 354.14
  C 656.83 310.55 627.94 273.34 588.49 252.49
  Q 564.15 239.63 535.48 236.06
  Q 526.13 234.90 492.98 235.11
  Q 480.65 235.19 256.74 235.14
  A 0.70 0.69 -90.0 0 0 256.05 235.84
  L 256.05 787.52
  A 0.66 0.66 0.0 0 0 256.71 788.18"
/>
<path stroke="#808080" vector-effect="non-scaling-stroke" d="
  M 293.26 467.13
  L 375.56 467.13
  A 0.49 0.49 0.0 0 0 376.05 466.64
  L 376.05 355.88
  A 0.75 0.74 90.0 0 1 376.79 355.13
  Q 457.45 355.06 517.00 355.16
  C 540.34 355.20 552.07 373.04 551.51 394.51
  C 550.99 414.76 547.41 435.37 536.97 453.00
  Q 520.70 480.49 490.73 493.29
  A 0.59 0.58 59.0 0 0 490.51 494.20
  L 646.64 686.85
  A 1.55 1.53 -18.9 0 0 647.85 687.43
  L 680.19 687.43
  A 0.29 0.29 0.0 0 0 680.42 686.96
  L 552.30 527.30
  A 0.67 0.65 50.7 0 1 552.38 526.38
  Q 569.71 511.61 582.07 499.82
  Q 590.44 491.83 598.40 482.68
  C 619.26 458.71 632.06 429.25 633.03 397.78
  C 634.47 351.42 610.49 309.63 570.02 287.55
  C 553.16 278.35 534.80 273.63 515.74 273.63
  Q 310.59 273.62 293.53 273.62
  A 0.57 0.56 -90.0 0 0 292.97 274.19
  L 292.97 466.84
  A 0.29 0.29 0.0 0 0 293.26 467.13"
/>
<path stroke="#808080" vector-effect="non-scaling-stroke" d="
  M 413.33 393.55
  L 413.33 466.72
  A 0.46 0.45 0.0 0 0 413.79 467.17
  Q 434.82 467.07 439.36 467.15
  Q 452.53 467.38 461.03 465.51
  Q 478.66 461.63 492.46 449.23
  C 508.39 434.90 515.23 415.09 514.00 393.76
  A 0.79 0.79 0.0 0 0 513.21 393.01
  L 413.87 393.01
  A 0.54 0.54 0.0 0 0 413.33 393.55"
/>
<path stroke="#808080" vector-effect="non-scaling-stroke" d="
  M 626.33 504.67
  L 730.63 504.67
  A 0.48 0.48 0.0 0 0 731.11 504.19
  L 731.11 393.63
  A 0.63 0.62 -90.0 0 0 730.49 393.00
  L 669.99 393.00
  A 0.78 0.77 -89.6 0 0 669.22 393.77
  Q 668.97 412.12 664.73 430.24
  C 658.16 458.35 646.14 483.84 626.15 504.22
  A 0.27 0.26 -67.4 0 0 626.33 504.67"
/>
<path stroke="#808080" vector-effect="non-scaling-stroke" d="
  M 376.03 505.82
  A 0.57 0.57 0.0 0 0 375.46 505.25
  L 293.52 505.25
  A 0.57 0.57 0.0 0 0 292.95 505.82
  L 292.95 597.40
  A 0.57 0.57 0.0 0 0 293.52 597.97
  L 375.46 597.97
  A 0.57 0.57 0.0 0 0 376.03 597.40
  L 376.03 505.82"
/>
<path stroke="#808080" vector-effect="non-scaling-stroke" d="
  M 514.13 597.12
  Q 514.21 591.15 514.06 584.26
  Q 514.01 582.36 512.82 580.94
  Q 478.02 539.66 449.86 506.23
  A 2.77 2.76 70.0 0 0 447.74 505.24
  L 413.76 505.24
  A 0.45 0.45 0.0 0 0 413.31 505.69
  L 413.31 597.41
  A 0.58 0.58 0.0 0 0 413.89 597.99
  L 513.24 597.99
  A 0.89 0.89 0.0 0 0 514.13 597.12"
/>
<path stroke="#808080" vector-effect="non-scaling-stroke" d="
  M 731.12 542.35
  A 0.42 0.42 0.0 0 0 730.70 541.93
  L 603.51 541.93
  A 0.42 0.42 0.0 0 0 603.19 542.62
  L 730.38 697.03
  A 0.42 0.42 0.0 0 0 731.12 696.76
  L 731.12 542.35"
/>
<path stroke="#808080" vector-effect="non-scaling-stroke" d="
  M 550.91 627.56
  L 550.91 749.22
  A 0.44 0.43 -0.0 0 0 551.35 749.65
  L 730.88 749.65
  A 0.27 0.26 0.0 0 0 731.15 749.39
  L 731.15 725.45
  A 0.47 0.47 0.0 0 0 730.68 724.98
  Q 691.57 725.01 633.86 725.04
  C 631.45 725.04 629.03 725.18 627.49 723.25
  Q 583.67 668.28 551.42 627.38
  A 0.29 0.29 0.0 0 0 550.91 627.56"
/>
<path stroke="#808080" vector-effect="non-scaling-stroke" d="
  M 376.05 636.15
  A 0.26 0.26 0.0 0 0 375.79 635.89
  L 293.23 635.89
  A 0.26 0.26 0.0 0 0 292.97 636.15
  L 292.97 749.39
  A 0.26 0.26 0.0 0 0 293.23 749.65
  L 375.79 749.65
  A 0.26 0.26 0.0 0 0 376.05 749.39
  L 376.05 636.15"
/>
<path stroke="#808080" vector-effect="non-scaling-stroke" d="
  M 514.09 636.15
  A 0.26 0.26 0.0 0 0 513.83 635.89
  L 413.59 635.89
  A 0.26 0.26 0.0 0 0 413.33 636.15
  L 413.33 749.39
  A 0.26 0.26 0.0 0 0 413.59 749.65
  L 513.83 749.65
  A 0.26 0.26 0.0 0 0 514.09 749.39
  L 514.09 636.15"
/>
</g>
<path fill="#0c0c0c" d="
  M 1024.00 0.00
  L 1024.00 1024.00
  L 0.00 1024.00
  L 0.00 0.00
  L 1024.00 0.00
  Z
  M 256.71 788.18
  L 767.33 788.18
  A 0.61 0.60 0.0 0 0 767.94 787.58
  L 767.94 355.72
  A 0.60 0.59 0.0 0 0 767.34 355.13
  L 667.88 355.13
  A 1.26 1.26 0.0 0 1 666.65 354.14
  C 656.83 310.55 627.94 273.34 588.49 252.49
  Q 564.15 239.63 535.48 236.06
  Q 526.13 234.90 492.98 235.11
  Q 480.65 235.19 256.74 235.14
  A 0.70 0.69 -90.0 0 0 256.05 235.84
  L 256.05 787.52
  A 0.66 0.66 0.0 0 0 256.71 788.18
  Z"
/>
<path fill="#f3f3f3" d="
  M 256.71 788.18
  A 0.66 0.66 0.0 0 1 256.05 787.52
  L 256.05 235.84
  A 0.70 0.69 -90.0 0 1 256.74 235.14
  Q 480.65 235.19 492.98 235.11
  Q 526.13 234.90 535.48 236.06
  Q 564.15 239.63 588.49 252.49
  C 627.94 273.34 656.83 310.55 666.65 354.14
  A 1.26 1.26 0.0 0 0 667.88 355.13
  L 767.34 355.13
  A 0.60 0.59 -0.0 0 1 767.94 355.72
  L 767.94 787.58
  A 0.61 0.60 0.0 0 1 767.33 788.18
  L 256.71 788.18
  Z
  M 293.26 467.13
  L 375.56 467.13
  A 0.49 0.49 0.0 0 0 376.05 466.64
  L 376.05 355.88
  A 0.75 0.74 90.0 0 1 376.79 355.13
  Q 457.45 355.06 517.00 355.16
  C 540.34 355.20 552.07 373.04 551.51 394.51
  C 550.99 414.76 547.41 435.37 536.97 453.00
  Q 520.70 480.49 490.73 493.29
  A 0.59 0.58 59.0 0 0 490.51 494.20
  L 646.64 686.85
  A 1.55 1.53 -18.9 0 0 647.85 687.43
  L 680.19 687.43
  A 0.29 0.29 0.0 0 0 680.42 686.96
  L 552.30 527.30
  A 0.67 0.65 50.7 0 1 552.38 526.38
  Q 569.71 511.61 582.07 499.82
  Q 590.44 491.83 598.40 482.68
  C 619.26 458.71 632.06 429.25 633.03 397.78
  C 634.47 351.42 610.49 309.63 570.02 287.55
  C 553.16 278.35 534.80 273.63 515.74 273.63
  Q 310.59 273.62 293.53 273.62
  A 0.57 0.56 -90.0 0 0 292.97 274.19
  L 292.97 466.84
  A 0.29 0.29 0.0 0 0 293.26 467.13
  Z
  M 413.33 393.55
  L 413.33 466.72
  A 0.46 0.45 0.0 0 0 413.79 467.17
  Q 434.82 467.07 439.36 467.15
  Q 452.53 467.38 461.03 465.51
  Q 478.66 461.63 492.46 449.23
  C 508.39 434.90 515.23 415.09 514.00 393.76
  A 0.79 0.79 0.0 0 0 513.21 393.01
  L 413.87 393.01
  A 0.54 0.54 0.0 0 0 413.33 393.55
  Z
  M 626.33 504.67
  L 730.63 504.67
  A 0.48 0.48 0.0 0 0 731.11 504.19
  L 731.11 393.63
  A 0.63 0.62 -90.0 0 0 730.49 393.00
  L 669.99 393.00
  A 0.78 0.77 -89.6 0 0 669.22 393.77
  Q 668.97 412.12 664.73 430.24
  C 658.16 458.35 646.14 483.84 626.15 504.22
  A 0.27 0.26 -67.4 0 0 626.33 504.67
  Z
  M 376.03 505.82
  A 0.57 0.57 0.0 0 0 375.46 505.25
  L 293.52 505.25
  A 0.57 0.57 0.0 0 0 292.95 505.82
  L 292.95 597.40
  A 0.57 0.57 0.0 0 0 293.52 597.97
  L 375.46 597.97
  A 0.57 0.57 0.0 0 0 376.03 597.40
  L 376.03 505.82
  Z
  M 514.13 597.12
  Q 514.21 591.15 514.06 584.26
  Q 514.01 582.36 512.82 580.94
  Q 478.02 539.66 449.86 506.23
  A 2.77 2.76 70.0 0 0 447.74 505.24
  L 413.76 505.24
  A 0.45 0.45 0.0 0 0 413.31 505.69
  L 413.31 597.41
  A 0.58 0.58 0.0 0 0 413.89 597.99
  L 513.24 597.99
  A 0.89 0.89 0.0 0 0 514.13 597.12
  Z
  M 731.12 542.35
  A 0.42 0.42 0.0 0 0 730.70 541.93
  L 603.51 541.93
  A 0.42 0.42 0.0 0 0 603.19 542.62
  L 730.38 697.03
  A 0.42 0.42 0.0 0 0 731.12 696.76
  L 731.12 542.35
  Z
  M 550.91 627.56
  L 550.91 749.22
  A 0.44 0.43 -0.0 0 0 551.35 749.65
  L 730.88 749.65
  A 0.27 0.26 0.0 0 0 731.15 749.39
  L 731.15 725.45
  A 0.47 0.47 0.0 0 0 730.68 724.98
  Q 691.57 725.01 633.86 725.04
  C 631.45 725.04 629.03 725.18 627.49 723.25
  Q 583.67 668.28 551.42 627.38
  A 0.29 0.29 0.0 0 0 550.91 627.56
  Z
  M 376.05 636.15
  A 0.26 0.26 0.0 0 0 375.79 635.89
  L 293.23 635.89
  A 0.26 0.26 0.0 0 0 292.97 636.15
  L 292.97 749.39
  A 0.26 0.26 0.0 0 0 293.23 749.65
  L 375.79 749.65
  A 0.26 0.26 0.0 0 0 376.05 749.39
  L 376.05 636.15
  Z
  M 514.09 636.15
  A 0.26 0.26 0.0 0 0 513.83 635.89
  L 413.59 635.89
  A 0.26 0.26 0.0 0 0 413.33 636.15
  L 413.33 749.39
  A 0.26 0.26 0.0 0 0 413.59 749.65
  L 513.83 749.65
  A 0.26 0.26 0.0 0 0 514.09 749.39
  L 514.09 636.15
  Z"
/>
<path fill="#0c0c0c" d="
  M 293.26 467.13
  A 0.29 0.29 0.0 0 1 292.97 466.84
  L 292.97 274.19
  A 0.57 0.56 90.0 0 1 293.53 273.62
  Q 310.59 273.62 515.74 273.63
  C 534.80 273.63 553.16 278.35 570.02 287.55
  C 610.49 309.63 634.47 351.42 633.03 397.78
  C 632.06 429.25 619.26 458.71 598.40 482.68
  Q 590.44 491.83 582.07 499.82
  Q 569.71 511.61 552.38 526.38
  A 0.67 0.65 50.7 0 0 552.30 527.30
  L 680.42 686.96
  A 0.29 0.29 0.0 0 1 680.19 687.43
  L 647.85 687.43
  A 1.55 1.53 -18.9 0 1 646.64 686.85
  L 490.51 494.20
  A 0.59 0.58 59.0 0 1 490.73 493.29
  Q 520.70 480.49 536.97 453.00
  C 547.41 435.37 550.99 414.76 551.51 394.51
  C 552.07 373.04 540.34 355.20 517.00 355.16
  Q 457.45 355.06 376.79 355.13
  A 0.75 0.74 90.0 0 0 376.05 355.88
  L 376.05 466.64
  A 0.49 0.49 0.0 0 1 375.56 467.13
  L 293.26 467.13
  Z"
/>
<path fill="#0c0c0c" d="
  M 413.87 393.01
  L 513.21 393.01
  A 0.79 0.79 0.0 0 1 514.00 393.76
  C 515.23 415.09 508.39 434.90 492.46 449.23
  Q 478.66 461.63 461.03 465.51
  Q 452.53 467.38 439.36 467.15
  Q 434.82 467.07 413.79 467.17
  A 0.46 0.45 0.0 0 1 413.33 466.72
  L 413.33 393.55
  A 0.54 0.54 0.0 0 1 413.87 393.01
  Z"
/>
<path fill="#0c0c0c" d="
  M 626.33 504.67
  A 0.27 0.26 -67.4 0 1 626.15 504.22
  C 646.14 483.84 658.16 458.35 664.73 430.24
  Q 668.97 412.12 669.22 393.77
  A 0.78 0.77 -89.6 0 1 669.99 393.00
  L 730.49 393.00
  A 0.63 0.62 90.0 0 1 731.11 393.63
  L 731.11 504.19
  A 0.48 0.48 0.0 0 1 730.63 504.67
  L 626.33 504.67
  Z"
/>
<rect fill="#0c0c0c" x="292.95" y="505.25" width="83.08" height="92.72" rx="0.57"/>
<path fill="#0c0c0c" d="
  M 514.13 597.12
  A 0.89 0.89 0.0 0 1 513.24 597.99
  L 413.89 597.99
  A 0.58 0.58 0.0 0 1 413.31 597.41
  L 413.31 505.69
  A 0.45 0.45 0.0 0 1 413.76 505.24
  L 447.74 505.24
  A 2.77 2.76 70.0 0 1 449.86 506.23
  Q 478.02 539.66 512.82 580.94
  Q 514.01 582.36 514.06 584.26
  Q 514.21 591.15 514.13 597.12
  Z"
/>
<path fill="#0c0c0c" d="
  M 731.12 542.35
  L 731.12 696.76
  A 0.42 0.42 0.0 0 1 730.38 697.03
  L 603.19 542.62
  A 0.42 0.42 0.0 0 1 603.51 541.93
  L 730.70 541.93
  A 0.42 0.42 0.0 0 1 731.12 542.35
  Z"
/>
<path fill="#0c0c0c" d="
  M 550.91 627.56
  A 0.29 0.29 0.0 0 1 551.42 627.38
  Q 583.67 668.28 627.49 723.25
  C 629.03 725.18 631.45 725.04 633.86 725.04
  Q 691.57 725.01 730.68 724.98
  A 0.47 0.47 0.0 0 1 731.15 725.45
  L 731.15 749.39
  A 0.27 0.26 -0.0 0 1 730.88 749.65
  L 551.35 749.65
  A 0.44 0.43 -0.0 0 1 550.91 749.22
  L 550.91 627.56
  Z"
/>
<rect fill="#0c0c0c" x="292.97" y="635.89" width="83.08" height="113.76" rx="0.26"/>
<rect fill="#0c0c0c" x="413.33" y="635.89" width="100.76" height="113.76" rx="0.26"/>
</svg>
